<svg width="106" height="106" viewBox="0 0 106 106" fill="none" xmlns="http://www.w3.org/2000/svg">
<g filter="url(#filter0_d_2_377)">
<ellipse cx="52.777" cy="51.1406" rx="19.4245" ry="19.4472" fill="white"/>
</g>
<g clip-path="url(#clip0_2_377)">
<path d="M46.8646 45.4372C47.6251 44.6169 48.5091 44.0003 49.4509 43.5762C52.5807 42.1669 56.3897 42.8942 58.7576 45.5989L60.3933 44.1977C60.4842 44.1198 60.63 44.1918 60.6387 44.3138L61.0455 49.8018C61.0505 49.8932 60.9662 49.9654 60.88 49.9436L55.5301 48.696C55.4082 48.6653 55.3625 48.5131 55.4534 48.4353L57.0858 47.0368C55.5209 45.265 53.1035 44.6795 50.9755 45.36C50.171 45.6158 49.4104 46.0479 48.7561 46.6703C47.8566 47.5253 47.2928 48.6218 47.0695 49.7812C46.9517 50.3998 46.3454 50.7955 45.7326 50.6507C45.1494 50.5143 44.7853 49.937 44.9007 49.3485C45.1725 47.9168 45.8296 46.5547 46.8646 45.4372V45.4372ZM58.3205 52.4739C58.1032 53.6338 57.5361 54.7331 56.6338 55.5848C55.9764 56.21 55.213 56.6389 54.4145 56.8952C52.2865 57.5757 49.8659 56.9929 48.3042 55.2184L49.9366 53.8199C50.0275 53.742 49.979 53.5866 49.8599 53.5591L44.5072 52.3083C44.4178 52.2892 44.3334 52.3615 44.3417 52.4501L44.7457 57.9348C44.7572 58.0601 44.9003 58.1288 44.9911 58.051L46.6268 56.6497C48.9915 59.3573 52.8033 60.0878 55.9335 58.6725C56.8753 58.2484 57.7565 57.6285 58.5198 56.8114C59.5576 55.6972 60.2147 54.335 60.4865 52.9034C60.5991 52.3117 60.2378 51.7376 59.6546 51.6012C59.0446 51.4597 58.4383 51.8553 58.3205 52.4739V52.4739Z" fill="#757575" stroke="white" stroke-width="0.3"/>
</g>
<defs>
<filter id="filter0_d_2_377" x="0.352501" y="0.693359" width="104.849" height="104.895" filterUnits="userSpaceOnUse" color-interpolation-filters="sRGB">
<feFlood flood-opacity="0" result="BackgroundImageFix"/>
<feColorMatrix in="SourceAlpha" type="matrix" values="0 0 0 0 0 0 0 0 0 0 0 0 0 0 0 0 0 0 127 0" result="hardAlpha"/>
<feOffset dy="2"/>
<feGaussianBlur stdDeviation="16.5"/>
<feComposite in2="hardAlpha" operator="out"/>
<feColorMatrix type="matrix" values="0 0 0 0 0 0 0 0 0 0 0 0 0 0 0 0 0 0 0.09 0"/>
<feBlend mode="normal" in2="BackgroundImageFix" result="effect1_dropShadow_2_377"/>
<feBlend mode="normal" in="SourceGraphic" in2="effect1_dropShadow_2_377" result="shape"/>
</filter>
<clipPath id="clip0_2_377">
<rect width="20.9964" height="20.9926" fill="white" transform="matrix(0.649713 0.76018 -0.759427 0.650592 53.8421 36.3143)"/>
</clipPath>
</defs>
</svg>
