<svg width="16" height="5" viewBox="0 0 16 5" fill="none" xmlns="http://www.w3.org/2000/svg">
<path d="M1.05052 4.44444C1.01052 4.44444 0.97652 4.43244 0.94852 4.40844C0.92452 4.38044 0.91252 4.34644 0.91252 4.30644V0.388442C0.91252 0.344442 0.92452 0.310443 0.94852 0.286443C0.97652 0.258443 1.01052 0.244442 1.05052 0.244442H2.41252C3.01652 0.244442 3.45252 0.380443 3.72052 0.652443C3.98852 0.920443 4.12852 1.32644 4.14052 1.87044C4.14452 1.98644 4.14652 2.14244 4.14652 2.33844C4.14652 2.53444 4.14452 2.69244 4.14052 2.81244C4.12852 3.19244 4.06452 3.50244 3.94852 3.74244C3.83652 3.97844 3.65852 4.15444 3.41452 4.27044C3.17052 4.38644 2.84652 4.44444 2.44252 4.44444H1.05052ZM2.41252 3.93444C2.68852 3.93444 2.90652 3.89644 3.06652 3.82044C3.23052 3.74444 3.34852 3.62444 3.42052 3.46044C3.49652 3.29244 3.53852 3.06844 3.54652 2.78844C3.55452 2.54844 3.55852 2.39844 3.55852 2.33844C3.55852 2.27444 3.55452 2.12644 3.54652 1.89444C3.53852 1.49844 3.44452 1.21044 3.26452 1.03044C3.08452 0.846443 2.79052 0.754443 2.38252 0.754443H1.50052V3.93444H2.41252ZM4.72693 4.44444C4.69493 4.44444 4.66693 4.43244 4.64293 4.40844C4.61893 4.38444 4.60693 4.35644 4.60693 4.32444C4.60693 4.29244 4.60893 4.27044 4.61293 4.25844L6.10093 0.376443C6.13293 0.288442 6.19693 0.244442 6.29293 0.244442H6.70093C6.79693 0.244442 6.86093 0.288442 6.89293 0.376443L8.37493 4.25844L8.38693 4.32444C8.38693 4.35644 8.37493 4.38444 8.35093 4.40844C8.32693 4.43244 8.29893 4.44444 8.26693 4.44444H7.96093C7.91693 4.44444 7.88293 4.43444 7.85893 4.41444C7.83493 4.39044 7.81893 4.36644 7.81093 4.34244L7.48093 3.49044H5.51293L5.18293 4.34244C5.17493 4.36644 5.15693 4.39044 5.12893 4.41444C5.10493 4.43444 5.07293 4.44444 5.03293 4.44444H4.72693ZM7.30693 2.97444L6.49693 0.844443L5.68693 2.97444H7.30693ZM9.88486 4.44444C9.84486 4.44444 9.81086 4.43244 9.78286 4.40844C9.75886 4.38044 9.74686 4.34644 9.74686 4.30644V2.89044L8.30086 0.442442C8.30086 0.434443 8.29886 0.422443 8.29486 0.406443C8.28686 0.390442 8.28286 0.376443 8.28286 0.364443C8.28286 0.332443 8.29486 0.304443 8.31886 0.280443C8.34286 0.256443 8.37086 0.244442 8.40286 0.244442H8.71486C8.78286 0.244442 8.83486 0.278443 8.87086 0.346443L10.0409 2.29044L11.2109 0.346443C11.2549 0.278443 11.3089 0.244442 11.3729 0.244442H11.6789C11.7149 0.244442 11.7449 0.256443 11.7689 0.280443C11.7929 0.304443 11.8049 0.332443 11.8049 0.364443C11.8049 0.384443 11.7969 0.410443 11.7809 0.442442L10.3409 2.89044V4.30644C10.3409 4.34644 10.3269 4.38044 10.2989 4.40844C10.2709 4.43244 10.2369 4.44444 10.1969 4.44444H9.88486ZM13.749 4.50444C13.417 4.50444 13.129 4.45244 12.885 4.34844C12.645 4.24444 12.461 4.10844 12.333 3.94044C12.205 3.76844 12.137 3.58444 12.129 3.38844C12.129 3.35644 12.141 3.32844 12.165 3.30444C12.193 3.27644 12.225 3.26244 12.261 3.26244H12.567C12.643 3.26244 12.695 3.30244 12.723 3.38244C12.759 3.55044 12.861 3.69444 13.029 3.81444C13.201 3.93444 13.441 3.99444 13.749 3.99444C14.081 3.99444 14.331 3.93644 14.499 3.82044C14.667 3.70044 14.751 3.53444 14.751 3.32244C14.751 3.18644 14.709 3.07644 14.625 2.99244C14.545 2.90844 14.425 2.83444 14.265 2.77044C14.105 2.70644 13.865 2.62644 13.545 2.53044C13.233 2.44244 12.985 2.34844 12.801 2.24844C12.617 2.14844 12.479 2.02444 12.387 1.87644C12.295 1.72844 12.249 1.54244 12.249 1.31844C12.249 1.10244 12.307 0.908442 12.423 0.736443C12.543 0.564443 12.713 0.430443 12.933 0.334442C13.153 0.234442 13.415 0.184443 13.719 0.184443C14.031 0.184443 14.299 0.240443 14.523 0.352443C14.747 0.460443 14.917 0.598443 15.033 0.766443C15.149 0.934443 15.211 1.10244 15.219 1.27044C15.219 1.30244 15.207 1.33044 15.183 1.35444C15.163 1.37844 15.133 1.39044 15.093 1.39044H14.775C14.691 1.39044 14.639 1.35244 14.619 1.27644C14.595 1.10844 14.501 0.970443 14.337 0.862443C14.173 0.750443 13.967 0.694443 13.719 0.694443C13.447 0.694443 13.233 0.746443 13.077 0.850443C12.921 0.954443 12.843 1.10844 12.843 1.31244C12.843 1.44844 12.879 1.56044 12.951 1.64844C13.027 1.73644 13.141 1.81444 13.293 1.88244C13.445 1.94644 13.667 2.02044 13.959 2.10444C14.299 2.19644 14.567 2.29244 14.763 2.39244C14.959 2.48844 15.105 2.61044 15.201 2.75844C15.297 2.90244 15.345 3.08644 15.345 3.31044C15.345 3.68244 15.201 3.97444 14.913 4.18644C14.625 4.39844 14.237 4.50444 13.749 4.50444Z" fill="white"/>
</svg>
