<svg width="106" height="106" viewBox="0 0 106 106" fill="none" xmlns="http://www.w3.org/2000/svg">
<g filter="url(#filter0_d_2_368)">
<ellipse cx="52.777" cy="50.8492" rx="19.4245" ry="19.4472" fill="white"/>
</g>
<path d="M52.777 60.1556L44.5361 51.9051C43.4432 50.811 42.8292 49.3271 42.8291 47.7797C42.829 46.2324 43.4429 44.7484 44.5357 43.6541C45.6285 42.5599 47.1107 41.9452 48.6562 41.9451C50.2018 41.945 51.684 42.5596 52.777 43.6537C53.8704 42.5608 55.3523 41.947 56.8974 41.947C58.4424 41.947 59.9243 42.5608 61.0178 43.6537C62.1089 44.7486 62.7216 46.2322 62.7216 47.7789C62.7216 49.3256 62.1089 50.8092 61.0178 51.9041L52.777 60.1556ZM48.6561 43.8899C47.8876 43.8899 47.1364 44.118 46.4975 44.5455C45.8586 44.9729 45.3606 45.5805 45.0666 46.2913C44.7726 47.0021 44.6958 47.7842 44.8458 48.5387C44.9958 49.2933 45.366 49.9863 45.9094 50.5302L52.777 57.4058L59.6445 50.5302C60.0389 50.1441 60.3467 49.6783 60.5474 49.1638C60.748 48.6493 60.8369 48.098 60.8082 47.5464C60.7794 46.9949 60.6337 46.4558 60.3806 45.965C60.1276 45.4742 59.773 45.043 59.3405 44.7001C58.9081 44.3572 58.4076 44.1105 57.8725 43.9763C57.3374 43.8421 56.7798 43.8235 56.237 43.9218C55.6941 44.0201 55.1784 44.2331 54.7242 44.5465C54.2699 44.8599 53.8876 45.2665 53.6025 45.7394L52.777 47.0735L51.9514 45.7394C51.6106 45.1706 51.1273 44.7008 50.5492 44.3768C49.9712 44.0527 49.3185 43.8855 48.6561 43.8919V43.8899Z" fill="#757575"/>
<defs>
<filter id="filter0_d_2_368" x="0.352524" y="0.401978" width="104.849" height="104.895" filterUnits="userSpaceOnUse" color-interpolation-filters="sRGB">
<feFlood flood-opacity="0" result="BackgroundImageFix"/>
<feColorMatrix in="SourceAlpha" type="matrix" values="0 0 0 0 0 0 0 0 0 0 0 0 0 0 0 0 0 0 127 0" result="hardAlpha"/>
<feOffset dy="2"/>
<feGaussianBlur stdDeviation="16.5"/>
<feComposite in2="hardAlpha" operator="out"/>
<feColorMatrix type="matrix" values="0 0 0 0 0 0 0 0 0 0 0 0 0 0 0 0 0 0 0.09 0"/>
<feBlend mode="normal" in2="BackgroundImageFix" result="effect1_dropShadow_2_368"/>
<feBlend mode="normal" in="SourceGraphic" in2="effect1_dropShadow_2_368" result="shape"/>
</filter>
</defs>
</svg>
