<svg width="32" height="40" viewBox="0 0 32 40" fill="none" xmlns="http://www.w3.org/2000/svg">
<path d="M5.96954 7.1676C6.61481 7.1676 7.14111 6.6413 7.14111 5.99603C7.14111 5.35077 6.61481 4.82446 5.96954 4.82446C5.32428 4.82446 4.79797 5.35077 4.79797 5.99603C4.79797 6.6449 5.32428 7.1676 5.96954 7.1676Z" fill="#85B839"/>
<path d="M9.59605 25.0045V27.2539C11.4201 25.9309 13.5974 25.2064 15.8937 25.2064C18.1864 25.2064 20.3673 25.9309 22.1913 27.2539V25.0045C22.1913 23.1156 23.1394 21.4465 24.5777 20.4408C24.4552 18.0688 22.4941 16.1763 20.0933 16.1763H11.6941C9.29325 16.1763 7.33222 18.0688 7.20966 20.4408C8.64798 21.4465 9.59605 23.1156 9.59605 25.0045Z" fill="#85B839"/>
<path d="M22.8222 12.7517H8.91473V14.6478H22.8222V12.7517Z" fill="#85B839"/>
<path d="M22.1913 29.2474C20.4754 27.6397 18.2548 26.7493 15.8937 26.7493C13.5325 26.7493 11.3119 27.6397 9.59601 29.2474V31.3022H22.1913V29.2474Z" fill="#85B839"/>
<path d="M25.551 7.1676C26.1963 7.1676 26.7226 6.6413 26.7226 5.99603C26.7226 5.35077 26.1963 4.82446 25.551 4.82446C24.9058 4.82446 24.3795 5.35077 24.3795 5.99603C24.3795 6.6449 24.9058 7.1676 25.551 7.1676Z" fill="#85B839"/>
<path d="M15.9117 3.99906C16.9535 3.99906 17.8006 3.15192 17.8006 2.11012C17.8006 1.06833 16.9535 0.221191 15.9117 0.221191C14.8699 0.221191 14.0228 1.06833 14.0228 2.11012C14.0228 3.15192 14.8699 3.99906 15.9117 3.99906Z" fill="#85B839"/>
<path d="M27.7608 20.9778C25.5402 20.9778 23.7342 22.7838 23.7342 25.0044V32.8413H8.05319V25.0044C8.05319 22.7838 6.24717 20.9778 4.0266 20.9778C1.80602 20.9778 0 22.7838 0 25.0044C0 27.225 1.80602 29.031 4.0266 29.031H4.79803V36.1001H26.9894V29.031H27.7608C29.9814 29.031 31.7874 27.225 31.7874 25.0044C31.7874 22.7838 29.9814 20.9778 27.7608 20.9778ZM4.0266 26.2553C3.33447 26.2553 2.77572 25.6965 2.77572 25.0044C2.77572 24.3123 3.33807 23.7535 4.0266 23.7535C4.71872 23.7535 5.27747 24.3123 5.27747 25.0044C5.27747 25.6965 4.71872 26.2553 4.0266 26.2553ZM27.7608 26.2553C27.0687 26.2553 26.5099 25.6965 26.5099 25.0044C26.5099 24.3123 27.0687 23.7535 27.7608 23.7535C28.4529 23.7535 29.0117 24.3123 29.0117 25.0044C29.0117 25.6965 28.4529 26.2553 27.7608 26.2553Z" fill="#85B839"/>
<path d="M8.69839 11.2087H23.0348C23.8171 10.3616 24.383 9.36665 24.6966 8.2816C23.7702 8.76825 22.732 9.03861 21.665 9.03861C19.138 9.03861 16.9499 7.59668 15.8648 5.49146C14.7797 7.59307 12.588 9.03861 10.0646 9.03861C8.99398 9.03861 7.9594 8.77906 7.03656 8.29602C7.35739 9.37386 7.91974 10.3652 8.69839 11.2087Z" fill="#85B839"/>
<path d="M9.59609 37.6431H8.05322V39.1859H9.59609V37.6431Z" fill="#85B839"/>
<path d="M23.7342 37.6431H22.1913V39.1859H23.7342V37.6431Z" fill="#85B839"/>
</svg>
