<svg width="17" height="17" viewBox="0 0 17 17" fill="none" xmlns="http://www.w3.org/2000/svg">
<path d="M8.07435 6.06059C6.59618 6.06059 5.38988 7.26689 5.38988 8.74507C5.38988 10.2232 6.59618 11.4295 8.07435 11.4295C9.55253 11.4295 10.7588 10.2232 10.7588 8.74507C10.7588 7.26689 9.55253 6.06059 8.07435 6.06059ZM16.1258 8.74507C16.1258 7.63342 16.1358 6.53184 16.0734 5.4222C16.011 4.13333 15.717 2.98945 14.7745 2.04697C13.83 1.10247 12.6881 0.810457 11.3992 0.748028C10.2876 0.685598 9.186 0.695667 8.07637 0.695667C6.96472 0.695667 5.86313 0.685598 4.7535 0.748028C3.46463 0.810457 2.32075 1.10448 1.37827 2.04697C0.433766 2.99147 0.141756 4.13333 0.0793265 5.4222C0.0168969 6.53385 0.0269662 7.63543 0.0269662 8.74507C0.0269662 9.85471 0.0168969 10.9583 0.0793265 12.0679C0.141756 13.3568 0.43578 14.5007 1.37827 15.4432C2.32277 16.3877 3.46463 16.6797 4.7535 16.7421C5.86515 16.8045 6.96673 16.7945 8.07637 16.7945C9.18802 16.7945 10.2896 16.8045 11.3992 16.7421C12.6881 16.6797 13.832 16.3857 14.7745 15.4432C15.719 14.4987 16.011 13.3568 16.0734 12.0679C16.1379 10.9583 16.1258 9.85672 16.1258 8.74507ZM8.07435 12.8755C5.78862 12.8755 3.94393 11.0308 3.94393 8.74507C3.94393 6.45934 5.78862 4.61464 8.07435 4.61464C10.3601 4.61464 12.2048 6.45934 12.2048 8.74507C12.2048 11.0308 10.3601 12.8755 8.07435 12.8755ZM12.3739 5.41011C11.8403 5.41011 11.4093 4.97915 11.4093 4.44548C11.4093 3.9118 11.8403 3.48084 12.3739 3.48084C12.9076 3.48084 13.3386 3.9118 13.3386 4.44548C13.3387 4.5722 13.3139 4.69771 13.2655 4.81482C13.2171 4.93192 13.146 5.03833 13.0564 5.12793C12.9668 5.21754 12.8604 5.28859 12.7433 5.33701C12.6262 5.38543 12.5007 5.41027 12.3739 5.41011Z" fill="#555555"/>
</svg>
