<svg width="18" height="15" viewBox="0 0 18 15" fill="none" xmlns="http://www.w3.org/2000/svg">
<path d="M17.7737 2.17796C17.1505 2.4468 16.4723 2.64029 15.7737 2.71565C16.499 2.28475 17.0421 1.60402 17.3012 0.80115C16.6206 1.20602 15.875 1.48993 15.0975 1.64027C14.7725 1.29286 14.3795 1.0161 13.9429 0.827235C13.5063 0.638367 13.0355 0.541438 12.5598 0.542489C10.6351 0.542489 9.0872 2.1026 9.0872 4.0171C9.0872 4.28594 9.11979 4.55479 9.17275 4.81345C6.29082 4.66273 3.7205 3.28592 2.01171 1.17794C1.70035 1.70975 1.53719 2.31528 1.5392 2.93154C1.5392 4.13726 2.15225 5.20042 3.08709 5.82569C2.53617 5.80399 1.99815 5.65256 1.5168 5.38372V5.42649C1.5168 7.11491 2.7103 8.51413 4.30096 8.83593C4.0023 8.9135 3.69506 8.95319 3.38649 8.95405C3.16041 8.95405 2.94656 8.93165 2.73067 8.9011C3.17059 10.2779 4.45168 11.2779 5.97717 11.3105C4.78366 12.2454 3.28872 12.7953 1.66547 12.7953C1.37423 12.7953 1.10538 12.7851 0.826355 12.7525C2.3661 13.7403 4.19302 14.3106 6.16047 14.3106C12.5476 14.3106 16.0425 9.01923 16.0425 4.42647C16.0425 4.27576 16.0425 4.12504 16.0323 3.97433C16.7085 3.47941 17.3012 2.86636 17.7737 2.17796Z" fill="#555555"/>
</svg>
