<svg width="106" height="105" viewBox="0 0 106 105" fill="none" xmlns="http://www.w3.org/2000/svg">
<g filter="url(#filter0_d_2_371)">
<ellipse cx="52.777" cy="50.4948" rx="19.4245" ry="19.4472" fill="white"/>
</g>
<g clip-path="url(#clip0_2_371)">
<path d="M61.6798 56.1669H60.0611V54.5463C60.0611 54.3314 59.9758 54.1253 59.824 53.9733C59.6723 53.8213 59.4664 53.736 59.2517 53.736C59.0371 53.736 58.8312 53.8213 58.6794 53.9733C58.5277 54.1253 58.4424 54.3314 58.4424 54.5463V56.1669H56.8237C56.609 56.1669 56.4032 56.2522 56.2514 56.4042C56.0996 56.5562 56.0143 56.7623 56.0143 56.9772C56.0143 57.1921 56.0996 57.3982 56.2514 57.5501C56.4032 57.7021 56.609 57.7875 56.8237 57.7875H58.4424V59.4081C58.4424 59.623 58.5277 59.8291 58.6794 59.981C58.8312 60.133 59.0371 60.2184 59.2517 60.2184C59.4664 60.2184 59.6723 60.133 59.824 59.981C59.9758 59.8291 60.0611 59.623 60.0611 59.4081V57.7875H61.6798C61.8945 57.7875 62.1003 57.7021 62.2521 57.5501C62.4039 57.3982 62.4892 57.1921 62.4892 56.9772C62.4892 56.7623 62.4039 56.5562 62.2521 56.4042C62.1003 56.2522 61.8945 56.1669 61.6798 56.1669Z" fill="#757575"/>
<path d="M60.0611 45.6329H57.6331C57.6331 44.3435 57.1214 43.1069 56.2107 42.1951C55.3 41.2833 54.0649 40.7711 52.7769 40.7711C51.489 40.7711 50.2538 41.2833 49.3431 42.1951C48.4324 43.1069 47.9208 44.3435 47.9208 45.6329H45.4928C44.8488 45.6329 44.2312 45.889 43.7759 46.3449C43.3205 46.8008 43.0647 47.4191 43.0647 48.0638V56.1668C43.066 57.241 43.4928 58.2708 44.2514 59.0303C45.01 59.7898 46.0386 60.2171 47.1115 60.2184H54.3956C54.6103 60.2184 54.8162 60.133 54.9679 59.981C55.1197 59.8291 55.205 59.623 55.205 59.4081C55.205 59.1931 55.1197 58.987 54.9679 58.8351C54.8162 58.6831 54.6103 58.5978 54.3956 58.5978H47.1115C46.4675 58.5978 45.8499 58.3416 45.3946 57.8858C44.9392 57.4299 44.6834 56.8116 44.6834 56.1668V48.0638C44.6834 47.8489 44.7687 47.6428 44.9205 47.4909C45.0723 47.3389 45.2781 47.2535 45.4928 47.2535H47.9208V48.8741C47.9208 49.089 48.0061 49.2951 48.1579 49.4471C48.3097 49.5991 48.5155 49.6844 48.7302 49.6844C48.9448 49.6844 49.1507 49.5991 49.3025 49.4471C49.4543 49.2951 49.5395 49.089 49.5395 48.8741V47.2535H56.0143V48.8741C56.0143 49.089 56.0996 49.2951 56.2514 49.4471C56.4032 49.5991 56.609 49.6844 56.8237 49.6844C57.0384 49.6844 57.2442 49.5991 57.396 49.4471C57.5478 49.2951 57.6331 49.089 57.6331 48.8741V47.2535H60.0611C60.2758 47.2535 60.4816 47.3389 60.6334 47.4909C60.7852 47.6428 60.8705 47.8489 60.8705 48.0638V52.1153C60.8705 52.3302 60.9557 52.5363 61.1075 52.6883C61.2593 52.8403 61.4652 52.9256 61.6798 52.9256C61.8945 52.9256 62.1003 52.8403 62.2521 52.6883C62.4039 52.5363 62.4892 52.3302 62.4892 52.1153V48.0638C62.4892 47.4191 62.2334 46.8008 61.778 46.3449C61.3227 45.889 60.7051 45.6329 60.0611 45.6329ZM49.5395 45.6329C49.5395 44.7733 49.8806 43.9489 50.4877 43.341C51.0949 42.7332 51.9183 42.3917 52.7769 42.3917C53.6356 42.3917 54.459 42.7332 55.0661 43.341C55.6733 43.9489 56.0143 44.7733 56.0143 45.6329H49.5395Z" fill="#757575"/>
</g>
<defs>
<filter id="filter0_d_2_371" x="0.352501" y="0.0476074" width="104.849" height="104.895" filterUnits="userSpaceOnUse" color-interpolation-filters="sRGB">
<feFlood flood-opacity="0" result="BackgroundImageFix"/>
<feColorMatrix in="SourceAlpha" type="matrix" values="0 0 0 0 0 0 0 0 0 0 0 0 0 0 0 0 0 0 127 0" result="hardAlpha"/>
<feOffset dy="2"/>
<feGaussianBlur stdDeviation="16.5"/>
<feComposite in2="hardAlpha" operator="out"/>
<feColorMatrix type="matrix" values="0 0 0 0 0 0 0 0 0 0 0 0 0 0 0 0 0 0 0.09 0"/>
<feBlend mode="normal" in2="BackgroundImageFix" result="effect1_dropShadow_2_371"/>
<feBlend mode="normal" in="SourceGraphic" in2="effect1_dropShadow_2_371" result="shape"/>
</filter>
<clipPath id="clip0_2_371">
<rect width="19.4245" height="19.4472" fill="white" transform="translate(43.0647 40.7711)"/>
</clipPath>
</defs>
</svg>
