<svg width="106" height="106" viewBox="0 0 106 106" fill="none" xmlns="http://www.w3.org/2000/svg">
<g filter="url(#filter0_d_2_382)">
<ellipse cx="52.777" cy="50.7863" rx="19.4245" ry="19.4472" fill="white"/>
</g>
<g clip-path="url(#clip0_2_382)">
<path d="M61.8992 48.6951C60.6439 46.6483 57.7885 43.2142 52.777 43.2142C47.7655 43.2142 44.9101 46.6483 43.6548 48.6951C43.2667 49.3235 43.0611 50.0477 43.0611 50.7865C43.0611 51.5253 43.2667 52.2495 43.6548 52.8779C44.9101 54.9247 47.7655 58.3588 52.777 58.3588C57.7885 58.3588 60.6439 54.9247 61.8992 52.8779C62.2872 52.2495 62.4928 51.5253 62.4928 50.7865C62.4928 50.0477 62.2872 49.3235 61.8992 48.6951ZM60.5192 52.0295C59.4412 53.7846 57.001 56.7382 52.777 56.7382C48.553 56.7382 46.1128 53.7846 45.0347 52.0295C44.8041 51.656 44.682 51.2256 44.682 50.7865C44.682 50.3474 44.8041 49.917 45.0347 49.5435C46.1128 47.7884 48.553 44.8348 52.777 44.8348C57.001 44.8348 59.4412 47.7851 60.5192 49.5435C60.7498 49.917 60.8719 50.3474 60.8719 50.7865C60.8719 51.2256 60.7498 51.656 60.5192 52.0295Z" fill="#757575"/>
<path d="M52.7769 46.735C51.9765 46.735 51.1941 46.9726 50.5287 47.4178C49.8632 47.863 49.3445 48.4957 49.0382 49.236C48.7319 49.9764 48.6518 50.791 48.8079 51.5769C48.9641 52.3628 49.3495 53.0847 49.9154 53.6513C50.4814 54.218 51.2024 54.6038 51.9874 54.7602C52.7724 54.9165 53.5861 54.8362 54.3255 54.5296C55.065 54.2229 55.697 53.7037 56.1417 53.0374C56.5863 52.3711 56.8237 51.5878 56.8237 50.7865C56.8224 49.7124 56.3956 48.6826 55.637 47.9231C54.8784 47.1635 53.8498 46.7363 52.7769 46.735ZM52.7769 53.2174C52.2967 53.2174 51.8273 53.0748 51.428 52.8077C51.0287 52.5406 50.7175 52.1609 50.5337 51.7168C50.3499 51.2726 50.3018 50.7838 50.3955 50.3122C50.4892 49.8407 50.7205 49.4076 51.06 49.0676C51.3996 48.7276 51.8322 48.4961 52.3032 48.4023C52.7742 48.3085 53.2624 48.3566 53.7061 48.5406C54.1498 48.7246 54.529 49.0362 54.7958 49.436C55.0626 49.8357 55.205 50.3057 55.205 50.7865C55.205 51.4312 54.9492 52.0495 54.4938 52.5054C54.0385 52.9613 53.4209 53.2174 52.7769 53.2174Z" fill="#757575"/>
</g>
<defs>
<filter id="filter0_d_2_382" x="0.352501" y="0.339111" width="104.849" height="104.895" filterUnits="userSpaceOnUse" color-interpolation-filters="sRGB">
<feFlood flood-opacity="0" result="BackgroundImageFix"/>
<feColorMatrix in="SourceAlpha" type="matrix" values="0 0 0 0 0 0 0 0 0 0 0 0 0 0 0 0 0 0 127 0" result="hardAlpha"/>
<feOffset dy="2"/>
<feGaussianBlur stdDeviation="16.5"/>
<feComposite in2="hardAlpha" operator="out"/>
<feColorMatrix type="matrix" values="0 0 0 0 0 0 0 0 0 0 0 0 0 0 0 0 0 0 0.09 0"/>
<feBlend mode="normal" in2="BackgroundImageFix" result="effect1_dropShadow_2_382"/>
<feBlend mode="normal" in="SourceGraphic" in2="effect1_dropShadow_2_382" result="shape"/>
</filter>
<clipPath id="clip0_2_382">
<rect width="19.4245" height="19.4472" fill="white" transform="translate(43.0647 41.0629)"/>
</clipPath>
</defs>
</svg>
